<svg xmlns="http://www.w3.org/2000/svg" width="100" height="61" viewBox="0 0 100 61" fill="none"><path d="M86.1 29.8V28.8C88.8 27.8 91.1 26.3 92.6 24C92.7 23.9 92.8 23.7 92.9 23.6L93 23.5C94.3 21.4 95 18.7 95 15.2C95 8.5 91.4 4.2 86 1.9C83.2 0.7 79.8 0.1 76.2 0C75.8 0 75.4 0 75 0C74.8 0 74.6 0 74.5 0C74.4 0 74.2 0 74.1 0H0.2H0V61H0.2H70.3C71.3 61 78.3 61 78.3 61C78.4 61 78.5 61 78.7 61C78.9 61 79.1 61 79.3 61C81.7 61 84 60.8 86.2 60.3C94.2 58.5 100 53.8 100 45.2V45V44.9C99.9 33.6 94.1 30.6 86.1 29.8ZM74.9 44.2C74.1 44.7 73.1 45 71.9 45.1C70.7 45.2 69 45.3 66.6 45.3H21.6V38.3H66.6C68.9 38.3 70.7 38.4 71.9 38.5C73.1 38.6 74.1 38.9 74.9 39.4C75.7 39.9 76.1 40.7 76.1 41.7C76.1 42.9 75.7 43.7 74.9 44.2ZM62.6 15.5C64.9 15.5 66.7 15.6 67.9 15.7C69.1 15.8 70.1 16.1 70.9 16.6C71.7 17.1 72.1 17.9 72.1 18.9C72.1 20.1 71.7 20.9 70.9 21.4C70.1 21.9 69.1 22.2 67.9 22.3C66.7 22.4 65 22.5 62.6 22.5H21.6V15.5H62.6Z" fill="#FF0041"/></svg>